<svg xmlns="http://www.w3.org/2000/svg" width="48" height="48" fill="none"><path fill="#46BBD0" stroke="#000" stroke-linecap="round" stroke-linejoin="round" stroke-width="3" d="M24 44c11.046 0 20-8.954 20-20S35.046 4 24 4 4 12.954 4 24s8.954 20 20 20"/><path fill="#D64274" d="M24 44c-6.628 0-12-8.954-12-20S17.372 4 24 4"/><path fill="#D64274" d="M24 44c-6.628 0-12-8.954-12-20S17.372 4 24 4"/><path stroke="#000" stroke-linecap="round" stroke-linejoin="round" stroke-width="3" d="M24 44c-6.628 0-12-8.954-12-20S17.372 4 24 4"/><path stroke="#000" stroke-linecap="round" stroke-linejoin="round" stroke-width="3" d="M24 44c-6.628 0-12-8.954-12-20S17.372 4 24 4"/><path fill="#D64274" d="M24.993 42.5C33.986 42 42.5 34.77 42.5 24S34 5.5 24.493 5.5C14.993 6 21 14.5 20.5 24c0 10.77-4.5 19 4.493 18.5"/></svg>