{
    "asset": {
        "version": "2.0",
        "generator": "Open Asset Import Library (assimp v4.1.216079013)"
    },
    "accessors": [
        {
            "bufferView": 0,
            "byteOffset": 0,
            "componentType": 5126,
            "count": 21240,
            "type": "VEC3",
            "max": [
                1.0,
                1.0,
                1.0
            ],
            "min": [
                -1.0000009536743165,
                -1.0,
                -1.0000009536743165
            ]
        },
        {
            "bufferView": 1,
            "byteOffset": 0,
            "componentType": 5126,
            "count": 21240,
            "type": "VEC3",
            "max": [
                1.0,
                1.0,
                1.0
            ],
            "min": [
                -1.0,
                -1.0,
                -1.0
            ]
        },
        {
            "bufferView": 2,
            "byteOffset": 0,
            "componentType": 5126,
            "count": 21240,
            "type": "VEC2",
            "max": [
                1.0,
                1.0
            ],
            "min": [
                0.0,
                0.0
            ]
        },
        {
            "bufferView": 3,
            "byteOffset": 0,
            "componentType": 5123,
            "count": 21240,
            "type": "SCALAR",
            "max": [
                21239.0
            ],
            "min": [
                0.0
            ]
        }
    ],
    "buffers": [
        {
            "byteLength": 722160,
            "uri": "sphere.bin"
        }
    ],
    "bufferViews": [
        {
            "buffer": 0,
            "byteOffset": 0,
            "byteLength": 254880,
            "target": 34962
        },
        {
            "buffer": 0,
            "byteOffset": 254880,
            "byteLength": 254880,
            "target": 34962
        },
        {
            "buffer": 0,
            "byteOffset": 509760,
            "byteLength": 169920,
            "target": 34962
        },
        {
            "buffer": 0,
            "byteOffset": 679680,
            "byteLength": 42480,
            "target": 34963
        }
    ],
    "materials": [
        {
            "name": "DefaultMaterial",
            "pbrMetallicRoughness": {
                "baseColorFactor": [
                    0.6000000238418579,
                    0.6000000238418579,
                    0.6000000238418579,
                    1.0
                ],
                "metallicFactor": 0.0
            }
        }
    ],
    "meshes": [
        {
            "name": "polySurface1 sphere:Mesh",
            "primitives": [
                {
                    "mode": 4,
                    "material": 0,
                    "indices": 3,
                    "attributes": {
                        "POSITION": 0,
                        "NORMAL": 1,
                        "TEXCOORD_0": 2
                    }
                }
            ]
        }
    ],
    "nodes": [
        {
            "name": "polySurface1 sphere:Mesh",
            "mesh": 0
        },
        {
            "name": "Camera",
            "matrix": [
                1.0, 0.0, 0.0, 0.0,
                0.0, 1.0, 0.0, 0.0,
                0.0, 0.0, 1.0, 0.0,
                0.0, 0.0, 3.0, 1.0
            ],
            "camera": 0
        }
    ],
    "cameras": [
        {
            "name": "Camera",
            "type": "perspective",
            "perspective": {
                "znear": 0.01,
                "yfov": 0.78539816339
            }
        }
    ],
    "scenes": [
        {
            "nodes": [
                0,
                1
            ]
        }
    ],
    "scene": 0
}